Simulation
nRows=27
nColumns=15
endheader
time  TH_x TH_y TH_z SC_y  SC_z  SC_x  AC_y  AC_z  AC_x  GH_y  GH_z  GH_yy  EL_x  PS_y
2.8725  0.000000  0.000000  0.000000  -33.56256107301853  -1.1094967547266263  -1.6545960678184772  45.735556969538486  -5.5452832435732855  0.3351066098304959  2.7402865142383677  19.757650930428778  0.4259522643054926  14.15004869899127  120.000000
2.92995  0.000000  0.000000  0.000000  -34.607302906764524  0.24363079662352988  -2.473359358462775  44.321573769103864  -2.785210664753894  -0.04156930687056922  13.763170134624762  15.08829512000349  -5.4283439572105685  14.493637837476287  120.000000
2.9874  0.000000  0.000000  0.000000  -35.89991782730493  1.2389113965887601  -3.104008700541046  43.25807050811447  -0.4488902517107549  -0.1687562433366262  27.839958236968837  11.77720595221137  -14.888636534707551  14.911867759014664  120.000000
3.0448500000000003  0.000000  0.000000  0.000000  -37.349789101989934  1.960837149172538  -3.4720922713309585  42.542643226906236  1.4454827132027748  -0.17476103991321149  44.43974264246727  9.755168964835349  -27.54056813620106  15.371454157162695  120.000000
3.1023  0.000000  0.000000  0.000000  -38.86817703881926  2.5041816879520877  -3.5786602203340525  42.13002422907839  2.9276675618705137  -0.1375457867564241  61.39623002049411  8.802284239615926  -41.24687282767853  15.839432714423008  120.000000
3.15975  0.000000  0.000000  0.000000  -40.373391965191374  2.92461379125563  -3.467653983242162  41.958525206370204  4.062552163630466  -0.10082449996279257  76.09908035956524  8.57323856973302  -53.36936893570529  16.28631978724777  120.000000
3.2172  0.000000  0.000000  0.000000  -41.79162364040296  3.2565153268674654  -3.1966309636364945  41.959052036447325  4.9205526599882266  -0.07955437337463994  87.35753346464513  8.720096089963649  -62.635793794249736  16.698364416113428  120.000000
3.2746500000000003  0.000000  0.000000  0.000000  -43.05293726750077  3.5159620614251472  -2.8146321659535767  42.055596492025344  5.559661620478665  -0.08858269682183326  95.41212737360057  8.991833164777363  -69.16656173106325  17.07790197670063  120.000000
3.3321  0.000000  0.000000  0.000000  -44.101226782243344  3.7171861084487428  -2.364720348478075  42.18214573997817  6.024505778503071  -0.15148760392298108  100.99937618339484  9.255219555987846  -73.57611413401735  17.436205082536254  120.000000
3.38955  0.000000  0.000000  0.000000  -44.90783551900823  3.869492577499155  -1.880845497150082  42.286722529885616  6.343210956418047  -0.29330037127684805  104.74199380298033  9.460857028508006  -76.38666280111156  17.78329693215829  120.000000
3.447  0.000000  0.000000  0.000000  -45.46515377909236  3.983280017603864  -1.3914838424316098  42.33402303851475  6.523530322856302  -0.5231267780619648  107.0451639230594  9.606469334258126  -77.93473640720421  18.126302016013582  120.000000
3.5044500000000003  0.000000  0.000000  0.000000  -45.77806820321324  4.064475887684539  -0.9259075008265444  42.31674414245435  6.5651047937431235  -0.8361838140806466  108.11695736192443  9.711950908443029  -78.3956081564746  18.468926895161715  120.000000
3.5619  0.000000  0.000000  0.000000  -45.85294196996747  4.112767199479825  -0.5146196360904752  42.24345636439526  6.468542230392749  -1.2142709394267142  108.08496858989294  9.801019362502805  -77.89648047206332  18.814531594725043  120.000000
3.61935  0.000000  0.000000  0.000000  -45.69105416925289  4.124540195027717  -0.18694196921746353  42.13150294034361  6.236223870143879  -1.6190926630795341  107.07377628393893  9.886109607515522  -76.58426453110904  19.166974700979733  120.000000
3.6768  0.000000  0.000000  0.000000  -45.29343854619618  4.087564731472301  0.03155019962388037  42.004228439025006  5.876502266444842  -1.9961083554197185  105.19002441011547  9.960397561333627  -74.60700758173671  19.52834867498454  120.000000
3.7342500000000003  0.000000  0.000000  0.000000  -44.66647440836204  3.9920323894639  0.12477615806828209  41.89863833013651  5.396229816518282  -2.2780950101024735  102.47857593448883  9.995069858569655  -72.05779719477475  19.899512723892922  120.000000
3.7917  0.000000  0.000000  0.000000  -43.81766497947343  3.8383615787845144  0.09951743890960033  41.878735938073575  4.790026434781221  -2.411292853506796  98.85162543820452  9.949193238614813  -68.89254800427254  20.28127559999337  120.000000
3.84915  0.000000  0.000000  0.000000  -42.76178389781192  3.6275151028533457  -0.03291019626906246  42.022452072271314  4.057408990424795  -2.3518997248417888  94.02038855963026  9.787813822280265  -64.8538131148386  20.672649689084437  120.000000
3.9066  0.000000  0.000000  0.000000  -41.53889548125914  3.3482088477346337  -0.26462599572614365  42.3941572552157  3.209526183838064  -2.0504223821925978  87.44293662363913  9.510502316294764  -59.409042269190664  21.06973773114969  120.000000
3.9640500000000003  0.000000  0.000000  0.000000  -40.21379859513271  2.9891056311152275  -0.5854131413411994  43.037114333747574  2.2598416616004213  -1.4645057390945022  78.30811023388299  9.187732586590643  -51.712811666807085  21.469594055895076  120.000000
4.0215  0.000000  0.000000  0.000000  -38.85108113085805  2.547753234739742  -0.9827488905342501  43.98502973903995  1.2170690418286145  -0.585712244132904  65.6951542728419  9.005814866954985  -40.75774772372032  21.87367343264132  120.000000
4.07895  0.000000  0.000000  0.000000  -37.54232216057692  1.9919763127188115  -1.4467515825551214  45.22180945499739  0.07527617144030713  0.593015293165892  49.44970661509863  9.318362672938813  -26.29030963593639  22.27315137336293  120.000000
4.1364  0.000000  0.000000  0.000000  -36.3891391156165  1.286453082250454  -1.985831301781555  46.70496267073355  -1.2073093287129357  2.0982495770378637  31.7405486404133  10.603045497811646  -10.384168561924605  22.65497931718347  120.000000
4.19385  0.000000  0.000000  0.000000  -35.45743728531666  0.39964492978335686  -2.6361129538841097  48.420661695076774  -2.677411191494646  3.924743538345422  16.169882752489716  13.203476024151357  3.431710346116712  22.98617579095075  120.000000
4.2513000000000005  0.000000  0.000000  0.000000  -34.73349523925354  -0.6867298940370177  -3.4609781442969414  50.32857510466443  -4.335727324479418  6.072225118913488  4.450198602266012  17.11556248421456  13.506584913444602  23.221057004389582  120.000000
4.30875  0.000000  0.000000  0.000000  -34.19958939136065  -1.9620988136280673  -4.504077907738341  52.364824052246476  -6.137159926412558  8.56804169437826  -3.797823956532115  22.092281223773767  20.2487310811453  23.345926360034024  120.000000
4.3662  0.000000  0.000000  0.000000  -33.9219137054176  -3.3730702897490463  -5.790272104611407  54.469062130093  -7.930686716030681  11.427422971684507  -9.414860060145188  27.746205814816157  24.478535462555016  23.370103805268535  120.000000
